<svg id="ic-container" xmlns="http://www.w3.org/2000/svg" width="24" height="14.874" viewBox="0 0 24 14.874">
  <path id="Контур_24" data-name="Контур 24" d="M5.5,5.177.553,6.526A.751.751,0,0,0,0,7.25v10.5a.751.751,0,0,0,.553.724L5.5,19.823Z" transform="translate(0 -5.063)" fill="#1165e3"/>
  <path id="Контур_25" data-name="Контур 25" d="M23.316,6.5,7,5.063V19.937L23.316,18.5A.75.75,0,0,0,24,17.75V7.25a.75.75,0,0,0-.684-.747ZM10.5,16.25a.75.75,0,0,1-1.5,0V8.75a.75.75,0,0,1,1.5,0Zm4-.5a.75.75,0,0,1-1.5,0V9.25a.75.75,0,0,1,1.5,0Zm4-.5a.75.75,0,0,1-1.5,0V9.75a.75.75,0,0,1,1.5,0ZM22,15a.75.75,0,0,1-1.5,0V10.25a.75.75,0,0,1,1.5,0Z" transform="translate(0 -5.063)" fill="#1165e3"/>
</svg>
