<svg id="ic-medium" xmlns="http://www.w3.org/2000/svg" width="36.001" height="18.762" viewBox="0 0 36.001 18.762">
  <path id="Combined-Shape" d="M36,14.3h0a1.07,1.07,0,0,1-.78,1.07,5.362,5.362,0,0,1-1.55.2h-.52a3.89,3.89,0,0,1-7.67-.1l-13.3-.18a3.89,3.89,0,0,1-7.74-.09h-2a.83.83,0,0,1-.83-.83v-1.19a.84.84,0,0,1,.44-.73l-.11-1.22a1,1,0,0,1-.36.07H.94a.94.94,0,0,1-.94-.94v-4a.94.94,0,0,1,.94-.94h.64a1,1,0,0,1,.5.15,3.107,3.107,0,0,0,.11-.49l.88-3.49a2,2,0,0,1,.45-.86,2.06,2.06,0,0,1,.8-.57,2,2,0,0,1,1-.15l15.5,1.25a2.11,2.11,0,0,1,1.72,1.15l2.3,4.5,6.2.71v-1l-.44-.08a.417.417,0,0,1,.15-.82l.91.17a.41.41,0,0,1,.34.4v1.39l.9.1a1.54,1.54,0,0,1,1.33,1.23l.48,2.78a1.061,1.061,0,0,0,.22.48,1,1,0,0,0,.42.32,1.09,1.09,0,0,1,.65,1ZM3.63,12.241h0a.33.33,0,0,0,.31-.42l-.24-.81a.31.31,0,0,0-.31-.17H3.11a.33.33,0,0,0-.32.36l.11.81a.33.33,0,0,0,.32.23Zm12.83-2.79a.42.42,0,0,0,.42.4h.74a.42.42,0,0,0,0-.84h-.74a.42.42,0,0,0-.42.44Zm-9.5,4H7a.69.69,0,0,1-1,.02,2.478,2.478,0,0,0-.27.62.7.7,0,0,1,.66.69.61.61,0,0,1-.11.35.68.68,0,0,1-.55.32A2.481,2.481,0,0,0,6,16.1a.707.707,0,0,1,1,1,2.353,2.353,0,0,0,.64.35.68.68,0,1,1,1.36,0,2.484,2.484,0,0,0,.65-.27.707.707,0,0,1,1-1,2.9,2.9,0,0,0,.28-.65.69.69,0,0,1-.51-.26.64.64,0,0,1-.15-.42.69.69,0,0,1,.66-.69,2.9,2.9,0,0,0-.28-.65.707.707,0,0,1-1-1,2.477,2.477,0,0,0-.65-.27.67.67,0,0,1-.71.65.69.69,0,0,1-.68-.57H7.36a1.84,1.84,0,0,0-.4.19A.68.68,0,0,1,6.96,13.451Zm2.1-3.58a.42.42,0,0,0,0-.84H8.32a.42.42,0,0,0,0,.84Zm5.54-2.11h0a.4.4,0,0,0,.4-.48l-1.05-5.05a.4.4,0,0,0-.36-.31l-6-.47a.4.4,0,0,0-.42.3L6.73,3.4a3.79,3.79,0,0,0,.16,2.42l.51,1.51a.41.41,0,0,0,.37.28Zm8.57-.75a.4.4,0,0,0,.11-.51l-1.82-3.57a.9.9,0,0,0-.72-.48l-5.08-.39a.41.41,0,0,0-.43.48l1,4.91a.4.4,0,0,0,.39.33H22l.28-.08Zm6.83,7.8h0a.68.68,0,0,1-.6.67h-.2a.682.682,0,1,1,.11-1.36A.69.69,0,0,1,30,14.811Zm1.17.01.05-.01a.69.69,0,0,1,.62-.55,2.48,2.48,0,0,0-.27-.65.707.707,0,0,1-1-1,2.476,2.476,0,0,0-.65-.27.68.68,0,1,1-1.36,0,2.476,2.476,0,0,0-.65.27.67.67,0,0,1,0,.94.69.69,0,0,1-.95,0,2.869,2.869,0,0,0-.27.65.69.69,0,0,1,.66.69.68.68,0,0,1-.46.64h-.2a2.873,2.873,0,0,0,.27.65.69.69,0,0,1,.95,0,.67.67,0,0,1,0,.94,2.483,2.483,0,0,0,.65.27.68.68,0,0,1,1.36,0,2.483,2.483,0,0,0,.65-.27.707.707,0,0,1,1-1,2.807,2.807,0,0,0,.26-.62A.69.69,0,0,1,31.17,14.821Zm2.37-3.12.05-.01a.3.3,0,0,0,.31-.35L33.61,9.8a.3.3,0,0,0-.29-.24h-.56a.3.3,0,0,0-.29.35l.23,1.55a.29.29,0,0,0,.26.24ZM7.62,14.811h0a.675.675,0,1,1,1.22.37.68.68,0,0,1-.55.28.7.7,0,0,1-.57-.3A.68.68,0,0,1,7.62,14.811Z" transform="translate(0 0)" fill="#8294af"/>
</svg>
