<svg id="ic-pickup" xmlns="http://www.w3.org/2000/svg" width="36" height="13.464" viewBox="0 0 36 13.464">
  <path id="Car_3" d="M6.873,6.611h.016A3.362,3.362,0,0,1,6.9,13.333H6.888a3.362,3.362,0,0,1-.015-6.721ZM6.9,11.469H6.9a1.5,1.5,0,0,0-.024-2.994H6.873A1.5,1.5,0,0,0,6.9,11.469ZM29.532,6.742h.014a3.362,3.362,0,0,1,.014,6.722h-.014a3.362,3.362,0,0,1-.014-6.722Zm.023,4.858h.007a1.5,1.5,0,0,0-.024-2.994H29.53a1.5,1.5,0,0,0,.024,2.994ZM12.376,9.834v.558a.393.393,0,0,0,.4.383H25.294a.248.248,0,0,0,.251-.271c0-.1.007-.574.013-.669H12.376ZM.181,7.591c.11,0,.219-.185.219-.412V3.88a.874.874,0,0,1,.805-.834H11.984L12.65.4a.507.507,0,0,1,.475-.4h9.595a1.317,1.317,0,0,1,.714.256l3,2.14a1.6,1.6,0,0,0,.712.3l6.738.722a3.016,3.016,0,0,1,.765.208l.179.081a.687.687,0,0,1,.364.561h0a.407.407,0,0,1,.4.412V7.456a.408.408,0,0,1,.4.412v1.3a.487.487,0,0,1-.4.464H33.532s-.028-.141-.05-.268a3.984,3.984,0,0,0-7.907.267h-13.2v0l-1.5,0A4.056,4.056,0,0,0,6.888,5.854,4.059,4.059,0,0,0,2.9,9.627c-.154-.01-.309.017-.425,0H.377A.419.419,0,0,1,0,9.206V7.875C0,7.649.071,7.591.181,7.591Zm13.2-4.566a.341.341,0,0,0,.34.407H18V.555H14.227a.486.486,0,0,0-.46.407ZM23.1.815a1.286,1.286,0,0,0-.71-.26h-3.6V3.433h2.4a.851.851,0,0,1,.627.339l.382.569a.849.849,0,0,0,.627.339h2.773a.407.407,0,0,0,.4-.412V3.408a1,1,0,0,0-.31-.672Z" fill="#8294af"/>
</svg>
