<svg id="ic-sedan" xmlns="http://www.w3.org/2000/svg" width="36.001" height="13.282" viewBox="0 0 36.001 13.282">
  <g id="Car_1">
    <path id="Combined-Shape" d="M35.62,9.63h0a.5.5,0,0,1,.38.52v.23a.51.51,0,0,1-.51.51H33.08a3.27,3.27,0,0,1-6.3,0H9.02a3.28,3.28,0,0,1-6.31,0H.51A.51.51,0,0,1,0,10.38v-.23a.51.51,0,0,1,.51-.51v-3a1.4,1.4,0,0,1,.06-.41l.35-1.1a1.24,1.24,0,0,1,.87-.89l1.76-.45A3.9,3.9,0,0,0,5,3.09L7.67,1.04a4,4,0,0,1,2-.79,49.24,49.24,0,0,1,5-.25,50.63,50.63,0,0,1,5.9.35L21.9.51a4.13,4.13,0,0,1,1.68.59l3.36,2.1a4.32,4.32,0,0,0,1.64.59l4.27.55a2.68,2.68,0,0,1,2.21,2.35l.33.43a1.43,1.43,0,0,1,.29.88V9.22A1.35,1.35,0,0,1,35.62,9.63ZM2.6,6.11h0a.19.19,0,0,0-.18-.25h-.7l-.16.08-.09.13A1.69,1.69,0,0,0,1.19,7v.17a.19.19,0,0,0,.19.19H2l.17-.12Zm15.08.36h0a.44.44,0,0,0,.43.39h1.27a.44.44,0,0,0,.43-.43A.43.43,0,0,0,19.38,6H18.11a.43.43,0,0,0-.43.47Zm-9.47,0h0a.43.43,0,0,0,.43.39H9.91a.44.44,0,0,0,.43-.43A.43.43,0,0,0,9.91,6H8.64a.43.43,0,0,0-.43.47ZM7.52,10a.48.48,0,0,1,.23-.57,2.18,2.18,0,0,0-.25-.61A.5.5,0,0,1,7,8.75a.48.48,0,0,1-.07-.5A2.18,2.18,0,0,0,6.32,8a.5.5,0,0,1-.91,0,2.18,2.18,0,0,0-.61.24.49.49,0,0,1-.1.54.5.5,0,0,1-.53.1,1.94,1.94,0,0,0-.26.61.48.48,0,0,1,.3.45.49.49,0,0,1-.3.46,3,3,0,0,0,.15.42l.11.18a.5.5,0,0,1,.53.11.48.48,0,0,1,.1.53,1.938,1.938,0,0,0,.61.26.5.5,0,0,1,.91,0,1.938,1.938,0,0,0,.61-.26.48.48,0,0,1,.1-.53A.5.5,0,0,1,7.56,11l.11-.12a2.1,2.1,0,0,0,.15-.42A.49.49,0,0,1,7.52,10Zm8-4.95V5a.59.59,0,0,0,.55-.68l-.56-2.59a.5.5,0,0,0-.51-.4l-4.78.18a.5.5,0,0,0-.4.21L8.11,4.12a.59.59,0,0,0,.48.93Zm10.82-.74-.06-.13L22.92,2.1a3,3,0,0,0-1.17-.41l-1.33-.16c-1.16-.13-2.34-.23-3.51-.28a.24.24,0,0,0-.25.31L17.33,4a1.31,1.31,0,0,0,1.26,1h6.56a1.3,1.3,0,0,0,1.09-.54Zm3.72,6.47a.81.81,0,1,1,.528-.326A.81.81,0,0,1,30.06,10.78ZM31.58,10h0a.49.49,0,0,1,.19-.56l-.05-.16a1.69,1.69,0,0,0-.13-.31l-.08-.14a.49.49,0,0,1-.49-.07.5.5,0,0,1-.08-.5l-.1-.06h-.11l-.12-.05h-.24a.47.47,0,0,1-.45.3.48.48,0,0,1-.45-.3h-.24l-.11.05H29l.04.1a.49.49,0,0,1-.64.64l-.08.14a2.894,2.894,0,0,0-.13.31v.16a.48.48,0,0,1,.3.45.49.49,0,0,1-.3.46v.37l.1.18a.5.5,0,0,1,.53.11.49.49,0,0,1,.11.53,1.938,1.938,0,0,0,.61.26.48.48,0,0,1,.45-.3.47.47,0,0,1,.45.3,1.85,1.85,0,0,0,.61-.26.49.49,0,0,1,.64-.64l.11-.18v-.1a.718.718,0,0,0,.09-.27A.5.5,0,0,1,31.58,10Zm2.05-3.2V6.78a.32.32,0,0,0,.38-.47,2.32,2.32,0,0,0-.69-1h-.88a.31.31,0,0,0-.28.44l.28.58.19.16ZM6.67,10h0a.81.81,0,1,1-.5-.749A.81.81,0,0,1,6.67,10Z" fill="#fff"/>
  </g>
</svg>
