<svg id="vs-002-g" xmlns="http://www.w3.org/2000/svg" width="24" height="21.073" viewBox="0 0 24 21.073">
  <path id="Shape" d="M9.861,2.416a3.145,3.145,0,0,1,5.384,0l8.887,14.837a3.145,3.145,0,0,1-2.7,4.717H3.662a3.145,3.145,0,0,1-2.68-4.732ZM2.789,18.3a1.048,1.048,0,0,0,.885,1.572H21.42a1.049,1.049,0,0,0,.9-1.558L13.449,3.5a1.048,1.048,0,0,0-1.791,0Z" transform="translate(-0.553 -0.897)" fill="#f6ab30"/>
  <path id="Shape-2" data-name="Shape" d="M11,8v4a1,1,0,0,0,2,0V8a1,1,0,0,0-2,0Z" transform="translate(-0.001 -0.477)" fill="#f6ab30"/>
  <path id="Shape-3" data-name="Shape" d="M12,17h.01a1,1,0,0,0,0-2H12a1,1,0,0,0,0,2Z" transform="translate(0 -0.141)" fill="#f6ab30"/>
</svg>
