<svg id="vs-001-g" xmlns="http://www.w3.org/2000/svg" width="24" height="24" viewBox="0 0 24 24">
  <path id="Oval" d="M12,24A12,12,0,1,1,24,12,12,12,0,0,1,12,24Zm0-2.182A9.818,9.818,0,1,0,2.182,12,9.818,9.818,0,0,0,12,21.818Z" fill="#22b14c"/>
  <path id="OK" d="M10.567,13.517A2.772,2.772,0,0,1,9.523,14.7a2.883,2.883,0,0,1-1.546.414A2.908,2.908,0,0,1,6.427,14.7a2.777,2.777,0,0,1-1.051-1.184A4.08,4.08,0,0,1,5,11.71v-.3A4.1,4.1,0,0,1,5.376,9.6,2.785,2.785,0,0,1,6.422,8.414,2.883,2.883,0,0,1,7.968,8a2.9,2.9,0,0,1,1.548.414A2.779,2.779,0,0,1,10.565,9.6a4.094,4.094,0,0,1,.376,1.81v.3A4.1,4.1,0,0,1,10.567,13.517ZM9.048,9.786a1.23,1.23,0,0,0-1.08-.559,1.224,1.224,0,0,0-1.08.557A2.89,2.89,0,0,0,6.513,11.4v.309a2.889,2.889,0,0,0,.381,1.617,1.23,1.23,0,0,0,1.084.566,1.214,1.214,0,0,0,1.075-.566,2.918,2.918,0,0,0,.376-1.617V11.4A2.863,2.863,0,0,0,9.048,9.786ZM14.08,12.3l-.728.789v1.931H11.859V8.1h1.494V11.2l.614-.87L15.659,8.1H17.5l-2.421,3.077,2.473,3.848H15.778Z" transform="translate(0.455 0.727)" fill="#22b14c"/>
</svg>
