<svg xmlns="http://www.w3.org/2000/svg" width="23.39" height="24" viewBox="0 0 23.39 24">
  <path id="search" d="M27.615,26.756,21.11,20.02a9.7,9.7,0,0,0,2.04-5.967,9.443,9.443,0,0,0-9.325-9.56A9.449,9.449,0,0,0,4.5,14.059a9.443,9.443,0,0,0,9.325,9.56A9.149,9.149,0,0,0,19.7,21.482l6.463,6.692a.985.985,0,0,0,.725.319.974.974,0,0,0,.688-.281A1.053,1.053,0,0,0,27.615,26.756Zm-13.79-5.192a7.183,7.183,0,0,1-5.177-2.2,7.635,7.635,0,0,1,0-10.61A7.193,7.193,0,0,1,19,8.754a7.635,7.635,0,0,1,0,10.61A7.183,7.183,0,0,1,13.825,21.564Z" transform="translate(-4.5 -4.493)" fill="#1165e3"/>
</svg>
