<svg xmlns="http://www.w3.org/2000/svg" width="47.23" height="46.83" viewBox="0 0 63.448 62.91">
  <path id="service-9" d="M16.2,29.125H13.134A.529.529,0,0,1,12.6,28.6V25.127a.529.529,0,0,1,.529-.529h3a2.313,2.313,0,0,1,2.323,2.3A2.266,2.266,0,0,1,16.2,29.125ZM39.23,46.152a1.057,1.057,0,0,1-1.013,1.361H7.4A7.4,7.4,0,0,1,0,40.11V20.255a7.4,7.4,0,0,1,7.4-7.4H50.23a7.4,7.4,0,0,1,7.4,7.4V40.11a7.356,7.356,0,0,1-.808,3.361,1.055,1.055,0,0,1-1.242.524l-13.035-3.9A3.175,3.175,0,0,0,38.6,44.042ZM19.419,30.544a.531.531,0,0,1,0-.723,4.391,4.391,0,0,0-3.305-7.338H11.547a1.058,1.058,0,0,0-1.057,1.057V36.824a1.058,1.058,0,0,0,1.057,1.057h4.566A4.391,4.391,0,0,0,19.419,30.544Zm14.439-7a1.057,1.057,0,0,0-2.115,0v9.3a2.927,2.927,0,1,1-5.855,0v-9.3a1.057,1.057,0,1,0-2.115,0v9.3a5.042,5.042,0,1,0,10.085,0Zm3.349.544,3.759,6.265c.108.179.075-.276.075,6.472a1.058,1.058,0,0,0,1.128,1.055,1.082,1.082,0,0,0,.987-1.091c0-6.7-.032-6.257.075-6.436l3.759-6.265A1.058,1.058,0,0,0,45.178,23l-2.625,4.375a.529.529,0,0,1-.907,0L39.021,23a1.057,1.057,0,0,0-1.814,1.088ZM13.134,35.767h3a2.313,2.313,0,0,0,2.323-2.3A2.266,2.266,0,0,0,16.2,31.24H13.134a.529.529,0,0,0-.529.529v3.469A.529.529,0,0,0,13.134,35.767Zm16.74,21.509V55.425a1.057,1.057,0,1,0-2.115,0v1.851a1.057,1.057,0,1,0,2.115,0ZM19.056,55.141l1.308-1.308a1.057,1.057,0,0,0-1.5-1.5l-1.308,1.308a1.057,1.057,0,1,0,1.5,1.5ZM29.873,4.94V3.089a1.057,1.057,0,0,0-2.115,0V4.94a1.057,1.057,0,0,0,2.115,0ZM20.365,6.532,19.056,5.224a1.057,1.057,0,1,0-1.5,1.5l1.308,1.308a1.057,1.057,0,0,0,1.5-1.5Zm18.4,1.5,1.308-1.308a1.057,1.057,0,1,0-1.5-1.5L37.267,6.532a1.057,1.057,0,1,0,1.5,1.5Zm24.309,49.7-7.09-5.958,2.941-2.94a1.058,1.058,0,0,0-.444-1.761L41.94,42.119a1.057,1.057,0,0,0-1.315,1.315l4.95,16.537a1.058,1.058,0,0,0,1.761.444l2.94-2.941,5.958,7.09a1.058,1.058,0,0,0,1.557.067l5.348-5.348A1.059,1.059,0,0,0,63.071,57.728Z" transform="translate(0 -2.032)" fill="#1165e3"/>
</svg>
