<svg xmlns="http://www.w3.org/2000/svg" width="28.46" height="37.22" viewBox="0 0 38.235 50">
  <g id="service-10" transform="translate(-60)">
    <path id="Контур_335" data-name="Контур 335" d="M165,0h17.647V5.882H165Z" transform="translate(-94.706)" fill="#1165e3"/>
    <path id="Контур_336" data-name="Контур 336" d="M150,165h2.941v2.941H150Z" transform="translate(-81.176 -148.824)" fill="#1165e3"/>
    <path id="Контур_337" data-name="Контур 337" d="M90.882,30v5.882H67.353V30H60V77.059H98.235V30ZM69.118,71.982l-3.2-3.2L68,66.705l1.117,1.117,3.47-3.47,2.08,2.08Zm0-11.765-3.2-3.2L68,54.941l1.117,1.117,3.47-3.47,2.08,2.08Zm5.588-11.1H65.882V40.294h8.824ZM92.353,72.647H79.118V69.706H92.353Zm0-5.882H79.118V63.824H92.353Zm0-5.882H79.118V57.941H92.353Zm0-5.882H79.118V52.059H92.353Zm0-5.882H79.118V46.176H92.353Zm0-5.882H79.118V40.294H92.353Z" transform="translate(0 -27.059)" fill="#1165e3"/>
  </g>
</svg>
