<svg xmlns="http://www.w3.org/2000/svg" width="29.21" height="37.22" viewBox="0 0 40.039 50">
  <g id="service-8" transform="translate(-51)">
    <path id="Контур_296" data-name="Контур 296" d="M74.44,8.789H67.6a20.04,20.04,0,0,1-7.81,5.467v8.962A19.151,19.151,0,0,0,71.02,40.705,19.151,19.151,0,0,0,82.25,23.218V14.257a20.025,20.025,0,0,1-7.81-5.468Zm4.451,12.6L69.776,30.5a1.463,1.463,0,0,1-2.071,0l-4.558-4.557a1.465,1.465,0,0,1,2.072-2.072L68.741,27.4l8.079-8.078a1.465,1.465,0,1,1,2.071,2.071ZM89.565,6.836A11.323,11.323,0,0,1,79.526.781,1.464,1.464,0,0,0,78.231,0H63.808a1.466,1.466,0,0,0-1.3.781A11.324,11.324,0,0,1,52.465,6.836,1.465,1.465,0,0,0,51,8.3V23.218A28.014,28.014,0,0,0,70.578,49.932a1.459,1.459,0,0,0,.883,0A28.014,28.014,0,0,0,91.039,23.218V8.3a1.473,1.473,0,0,0-1.474-1.465ZM85.18,23.151a22.074,22.074,0,0,1-13.6,20.437,1.47,1.47,0,0,1-1.127,0,22.074,22.074,0,0,1-13.6-20.437V13.159a1.464,1.464,0,0,1,1.008-1.392,17.117,17.117,0,0,0,7.918-5.437,1.465,1.465,0,0,1,1.135-.538h8.2a1.8,1.8,0,0,1,1.135.538,17.117,17.117,0,0,0,7.918,5.437,1.462,1.462,0,0,1,.911.871s0,.009,0,.013a1.482,1.482,0,0,1,.078.314c0,.011,0,.022,0,.033a1.439,1.439,0,0,1,.01.16Z" fill="#1165e3"/>
  </g>
</svg>
