<svg xmlns="http://www.w3.org/2000/svg" width="27.56" height="37.22" viewBox="0 0 37.026 50">
  <g id="service-1" transform="translate(-63.772)">
    <g id="Сгруппировать_27" data-name="Сгруппировать 27" transform="translate(63.772)">
      <path id="Контур_268" data-name="Контур 268" d="M97.914,20.709H95.9V13.614A13.63,13.63,0,0,0,82.285,0h0A13.63,13.63,0,0,0,68.671,13.614v.146h4.858v-.146A8.729,8.729,0,0,1,76.1,7.425a8.824,8.824,0,0,1,1.3-1.07,8.713,8.713,0,0,1,4.892-1.5h0a8.766,8.766,0,0,1,8.757,8.757v7.095H66.656a2.884,2.884,0,0,0-2.884,2.884V47.116A2.884,2.884,0,0,0,66.656,50H97.914a2.884,2.884,0,0,0,2.884-2.884V23.593A2.884,2.884,0,0,0,97.914,20.709Zm-12.74,20.3H79.4l1.034-4.928a3.468,3.468,0,1,1,3.71,0Z" transform="translate(-63.772)" fill="#1165e3"/>
    </g>
  </g>
</svg>
