<svg id="service-4" xmlns="http://www.w3.org/2000/svg" width="37.22" height="37.22" viewBox="0 0 50 50">
  <path id="Контур_283" data-name="Контур 283" d="M241,151h2.93v5.859H241Z" transform="translate(-217.465 -136.254)" fill="#1165e3"/>
  <path id="Контур_284" data-name="Контур 284" d="M170.043,151h-4.395v7.324a1.465,1.465,0,0,1-1.465,1.465h-5.859a1.465,1.465,0,0,1-1.465-1.465V151h-4.395A1.465,1.465,0,0,0,151,152.465v17.578a1.465,1.465,0,0,0,1.465,1.465h17.578a1.465,1.465,0,0,0,1.465-1.465V152.465A1.465,1.465,0,0,0,170.043,151Z" transform="translate(-136.254 -136.254)" fill="#1165e3"/>
  <path id="Контур_285" data-name="Контур 285" d="M48.535,23.535H43.987A19.075,19.075,0,0,0,26.465,6.013V1.465a1.465,1.465,0,0,0-2.93,0V6.013A19.075,19.075,0,0,0,6.013,23.535H1.465a1.465,1.465,0,0,0,0,2.93H6.013A19.075,19.075,0,0,0,23.535,43.987v4.548a1.465,1.465,0,0,0,2.93,0V43.987A19.075,19.075,0,0,0,43.987,26.465h4.548a1.465,1.465,0,0,0,0-2.93ZM26.465,41.048v-1.4a1.465,1.465,0,0,0-2.93,0v1.4A16.143,16.143,0,0,1,8.952,26.465h1.4a1.465,1.465,0,0,0,0-2.93h-1.4A16.143,16.143,0,0,1,23.535,8.952v1.4a1.465,1.465,0,0,0,2.93,0v-1.4A16.143,16.143,0,0,1,41.048,23.535h-1.4a1.465,1.465,0,0,0,0,2.93h1.4A16.143,16.143,0,0,1,26.465,41.048Z" fill="#1165e3"/>
  <path id="Контур_286" data-name="Контур 286" d="M32.465,39.789a1.465,1.465,0,0,0,1.465-1.465V33.93h4.395a1.465,1.465,0,0,0,0-2.93H32.465A1.465,1.465,0,0,0,31,32.465v5.859A1.465,1.465,0,0,0,32.465,39.789Z" transform="translate(-27.973 -27.973)" fill="#1165e3"/>
  <path id="Контур_287" data-name="Контур 287" d="M38.324,396.859H33.93v-4.395a1.465,1.465,0,0,0-2.93,0v5.859a1.465,1.465,0,0,0,1.465,1.465h5.859a1.465,1.465,0,0,0,0-2.93Z" transform="translate(-27.973 -352.816)" fill="#1165e3"/>
  <path id="Контур_288" data-name="Контур 288" d="M398.324,391a1.465,1.465,0,0,0-1.465,1.465v4.395h-4.395a1.465,1.465,0,0,0,0,2.93h5.859a1.465,1.465,0,0,0,1.465-1.465v-5.859A1.465,1.465,0,0,0,398.324,391Z" transform="translate(-352.816 -352.816)" fill="#1165e3"/>
  <path id="Контур_289" data-name="Контур 289" d="M392.465,33.93h4.395v4.395a1.465,1.465,0,0,0,2.93,0V32.465A1.465,1.465,0,0,0,398.324,31h-5.859a1.465,1.465,0,0,0,0,2.93Z" transform="translate(-352.816 -27.973)" fill="#1165e3"/>
</svg>
