<svg xmlns="http://www.w3.org/2000/svg" width="51.5" height="37.22" viewBox="0 0 69.176 50">
  <g id="service-3" transform="translate(0.001 -67.916)">
    <path id="Контур_274" data-name="Контур 274" d="M43.038,221.024H26.651a1,1,0,0,0-1,1v7.452a1,1,0,0,0,1,1H43.038a1,1,0,0,0,1-1v-7.452A1,1,0,0,0,43.038,221.024Z" transform="translate(-22.032 -131.493)" fill="#1165e3"/>
    <g id="Сгруппировать_30" data-name="Сгруппировать 30" transform="translate(27.907 83.45)">
      <path id="Контур_275" data-name="Контур 275" d="M338.329,240.743h-5.91a.428.428,0,0,0-.428.428v5.91a.428.428,0,0,0,.428.428h5.91a.428.428,0,0,0,.427-.428v-5.91A.428.428,0,0,0,338.329,240.743Z" transform="translate(-313.03 -231.878)" fill="#1165e3"/>
      <path id="Контур_276" data-name="Контур 276" d="M271.174,240.743h-5.91a.428.428,0,0,0-.428.428v5.91a.428.428,0,0,0,.428.428h5.91a.428.428,0,0,0,.428-.428v-5.91A.428.428,0,0,0,271.174,240.743Z" transform="translate(-255.357 -231.878)" fill="#1165e3"/>
      <path id="Контур_277" data-name="Контур 277" d="M204.021,240.743h-5.91a.428.428,0,0,0-.428.428v5.91a.428.428,0,0,0,.428.428h5.91a.428.428,0,0,0,.428-.428v-5.91A.428.428,0,0,0,204.021,240.743Z" transform="translate(-197.684 -231.878)" fill="#1165e3"/>
      <path id="Контур_278" data-name="Контур 278" d="M271.174,177.951h-5.91a.428.428,0,0,0-.428.428v5.91a.428.428,0,0,0,.428.428h5.91a.428.428,0,0,0,.428-.428v-5.91A.428.428,0,0,0,271.174,177.951Z" transform="translate(-255.357 -177.951)" fill="#1165e3"/>
      <path id="Контур_279" data-name="Контур 279" d="M204.021,177.951h-5.91a.428.428,0,0,0-.428.428v5.91a.428.428,0,0,0,.428.428h5.91a.428.428,0,0,0,.428-.428v-5.91A.428.428,0,0,0,204.021,177.951Z" transform="translate(-197.684 -177.951)" fill="#1165e3"/>
    </g>
    <path id="Контур_280" data-name="Контур 280" d="M73.754,150.818H68.427a.571.571,0,0,0-.57.57v6.756a.571.571,0,0,0,.57.57h5.327a.57.57,0,0,0,.57-.57v-6.756A.571.571,0,0,0,73.754,150.818Z" transform="translate(-58.278 -71.198)" fill="#1165e3"/>
    <path id="Контур_281" data-name="Контур 281" d="M73.754,74.968H71.946v-6.2a.856.856,0,0,0-1.711,0v6.2H68.427a.57.57,0,0,0-.57.57v1.5a.57.57,0,0,0,.57.57h5.327a.57.57,0,0,0,.57-.57v-1.5A.57.57,0,0,0,73.754,74.968Z" transform="translate(-58.278)" fill="#1165e3"/>
    <path id="Контур_282" data-name="Контур 282" d="M69.13,289.918a.356.356,0,0,0-.311-.183H57.45a.357.357,0,0,0-.281.137L55.662,291.8H.356a.357.357,0,0,0-.331.49s4.829,11.93,6.442,15.906a.357.357,0,0,0,.33.223H57.668a.363.363,0,0,0,.327-.169c2.773-4.5,11.127-17.972,11.127-17.972A.357.357,0,0,0,69.13,289.918Zm-22.71,8.924a1.4,1.4,0,1,1,1.4-1.4A1.4,1.4,0,0,1,46.421,298.842Zm6.785,0a1.4,1.4,0,1,1,1.4-1.4A1.4,1.4,0,0,1,53.206,298.842Z" transform="translate(0 -190.504)" fill="#1165e3"/>
  </g>
</svg>
