<svg xmlns="http://www.w3.org/2000/svg" width="32.13" height="37.22" viewBox="0 0 43.163 50">
  <g id="service-2" transform="translate(-35.007)">
    <path id="Контур_269" data-name="Контур 269" d="M58.2,302.661l-18.377-8.509,6.7-3.4c-.673-.673-1.466-1.568-2.033-2.254l-8.683,4.406a1.466,1.466,0,0,0,.048,2.636L61.043,307.2A40.679,40.679,0,0,1,58.2,302.661Z" transform="translate(0 -260.326)" fill="#1165e3"/>
    <g id="Сгруппировать_28" data-name="Сгруппировать 28" transform="translate(39.498)">
      <path id="Контур_270" data-name="Контур 270" d="M91.052,0A10.07,10.07,0,0,0,80.993,10.059c0,9.1,8.654,17.855,9.023,18.223a1.465,1.465,0,0,0,2.072,0c.368-.368,9.023-9.127,9.023-18.223A10.07,10.07,0,0,0,91.052,0ZM91,14.307a4.248,4.248,0,1,1,4.248-4.248A4.253,4.253,0,0,1,91,14.307Z" transform="translate(-80.993)" fill="#1165e3"/>
      <path id="Контур_271" data-name="Контур 271" d="M171.318,89.5a1.318,1.318,0,1,0,1.318,1.318A1.32,1.32,0,0,0,171.318,89.5Z" transform="translate(-161.308 -80.76)" fill="#1165e3"/>
    </g>
    <g id="Сгруппировать_29" data-name="Сгруппировать 29" transform="translate(58.053 21.289)">
      <path id="Контур_272" data-name="Контур 272" d="M281.052,218a10.07,10.07,0,0,0-10.059,10.059c0,9.1,8.654,17.855,9.023,18.223a1.465,1.465,0,0,0,2.072,0c.368-.368,9.023-9.127,9.023-18.223A10.07,10.07,0,0,0,281.052,218ZM281,232.355a4.248,4.248,0,1,1,4.248-4.248A4.253,4.253,0,0,1,281,232.355Z" transform="translate(-270.993 -218)" fill="#1165e3"/>
      <path id="Контур_273" data-name="Контур 273" d="M361.318,308a1.318,1.318,0,1,0,1.318,1.318A1.32,1.32,0,0,0,361.318,308Z" transform="translate(-351.308 -299.211)" fill="#1165e3"/>
    </g>
  </g>
</svg>
