<svg xmlns="http://www.w3.org/2000/svg" width="33.33" height="37.22" viewBox="0 0 44.771 50">
  <g id="service-7" transform="translate(-26.667)">
    <path id="Контур_292" data-name="Контур 292" d="M100.95,18.428v.847a9.309,9.309,0,0,1,2.942.345V18.428a18.428,18.428,0,0,0-36.856,0V19.62a9.41,9.41,0,0,1,2.942-.345v-.847a15.486,15.486,0,1,1,30.972,0Z" transform="translate(-36.412)" fill="#1165e3"/>
    <path id="Контур_293" data-name="Контур 293" d="M218.358,386.922a6.733,6.733,0,0,1-6.726,6.88H208.2a3.4,3.4,0,0,0-3.066-1.928h-4.533a3.4,3.4,0,1,0,0,6.8h4.533a3.4,3.4,0,0,0,3.066-1.929h3.428c4.946,0,9.668-3.781,9.668-10.172a9.134,9.134,0,0,1-2.942.35Z" transform="translate(-153.82 -348.673)" fill="#1165e3"/>
    <path id="Контур_294" data-name="Контур 294" d="M33.224,226.493a6.558,6.558,0,0,0-.132,13.115,1.483,1.483,0,0,0,1.6-1.475V227.969A1.464,1.464,0,0,0,33.224,226.493Z" transform="translate(0 -204.288)" fill="#1165e3"/>
    <path id="Контур_295" data-name="Контур 295" d="M402.918,226.493a1.465,1.465,0,0,0-1.443,1.476v10.164a1.483,1.483,0,0,0,1.6,1.475,6.558,6.558,0,0,0-.156-13.115Z" transform="translate(-338.063 -204.288)" fill="#1165e3"/>
  </g>
</svg>
