<svg xmlns="http://www.w3.org/2000/svg" width="39.54" height="37.22" viewBox="0 0 53.113 50">
  <g id="service-12" transform="translate(0 -0.5)">
    <path id="Контур_326" data-name="Контур 326" d="M0,291.4v9.025H53.113V291.4Zm26.557,5.957a1.556,1.556,0,1,1,1.556-1.556A1.583,1.583,0,0,1,26.557,297.355Zm0,0" transform="translate(0 -260.721)" fill="#1165e3"/>
    <path id="Контур_327" data-name="Контур 327" d="M128.751,412.972h-4.669v3.112h27.37v-3.112H146.81V408.4H128.751Zm0,0" transform="translate(-111.21 -365.584)" fill="#1165e3"/>
    <path id="Контур_328" data-name="Контур 328" d="M324.355,157.224a3.647,3.647,0,0,1,5.565.064v-2.241h-5.565Zm0,0" transform="translate(-290.707 -138.515)" fill="#1165e3"/>
    <path id="Контур_329" data-name="Контур 329" d="M166.039,96.98h5.494v3.112h-5.494v3.264a3.651,3.651,0,0,1,6.038.295h7.273V94.719H166.039Zm0,0" transform="translate(-148.815 -84.445)" fill="#1165e3"/>
    <path id="Контур_330" data-name="Контур 330" d="M324.687,94.707h-.331v3.147h3.416Zm0,0" transform="translate(-290.708 -84.434)" fill="#1165e3"/>
    <path id="Контур_331" data-name="Контур 331" d="M53.113.5H0V27.565H53.113ZM12.658,21.489H8.477V18.377h4.18Zm27.191.828a3.652,3.652,0,0,1-6.892,0H23.589a3.653,3.653,0,0,1-6.892,0H14.112V15.647H8.477V12.535h5.635V7.162H35.286l7.039,7.18v7.977Zm0,0" fill="#1165e3"/>
  </g>
</svg>
