<svg id="telephone" xmlns="http://www.w3.org/2000/svg" width="20.999" height="21" viewBox="0 0 20.999 21">
  <g id="Сгруппировать_25" data-name="Сгруппировать 25" transform="translate(0)">
    <path id="Контур_259" data-name="Контур 259" d="M15.971,58.013a1.471,1.471,0,0,0-2.224,0c-.52.516-1.04,1.031-1.551,1.556a.306.306,0,0,1-.428.079c-.336-.184-.695-.332-1.018-.533a16.132,16.132,0,0,1-3.889-3.54,9.214,9.214,0,0,1-1.394-2.233.32.32,0,0,1,.079-.411c.52-.5,1.027-1.018,1.538-1.534a1.477,1.477,0,0,0,0-2.277c-.406-.411-.813-.813-1.219-1.224s-.835-.843-1.259-1.259a1.481,1.481,0,0,0-2.224,0c-.524.516-1.027,1.044-1.56,1.551a2.532,2.532,0,0,0-.8,1.709A7.239,7.239,0,0,0,.58,53.018a18.933,18.933,0,0,0,3.36,5.6A20.8,20.8,0,0,0,10.828,64a9.96,9.96,0,0,0,3.815,1.11,2.8,2.8,0,0,0,2.4-.913c.446-.5.948-.953,1.42-1.429a1.487,1.487,0,0,0,.009-2.264Q17.225,59.256,15.971,58.013Z" transform="translate(-0.006 -44.121)" fill="#1165e3"/>
    <path id="Контур_260" data-name="Контур 260" d="M242.591,102.214l1.613-.275A7.238,7.238,0,0,0,238.081,96l-.227,1.621a5.594,5.594,0,0,1,4.737,4.593Z" transform="translate(-227.46 -91.805)" fill="rgba(17,101,227,0.6)"/>
    <path id="Контур_261" data-name="Контур 261" d="M249.8,3.4A11.89,11.89,0,0,0,242.981,0l-.227,1.621a10.375,10.375,0,0,1,8.779,8.508l1.613-.275A11.977,11.977,0,0,0,249.8,3.4Z" transform="translate(-232.146)" fill="rgba(17,101,227,0.27)"/>
  </g>
</svg>
